<?xml version="1.0" encoding="UTF-8" standalone="no"?>
<!-- Created with Inkscape (http://www.inkscape.org/) -->

<svg
   xmlns:dc="http://purl.org/dc/elements/1.1/"
   xmlns:cc="http://creativecommons.org/ns#"
   xmlns:rdf="http://www.w3.org/1999/02/22-rdf-syntax-ns#"
   xmlns:svg="http://www.w3.org/2000/svg"
   xmlns="http://www.w3.org/2000/svg"
   xmlns:sodipodi="http://sodipodi.sourceforge.net/DTD/sodipodi-0.dtd"
   xmlns:inkscape="http://www.inkscape.org/namespaces/inkscape"
   width="210mm"
   height="297mm"
   viewBox="0 0 210 297"
   version="1.1"
   id="svg8"
   inkscape:version="0.92.4 (33fec40, 2019-01-16)"
   sodipodi:docname="logo.svg">
  <defs
     id="defs2">
	
	

		
	
			
			
			
		</defs>
  <sodipodi:namedview
     id="base"
     pagecolor="#ffffff"
     bordercolor="#666666"
     borderopacity="1.0"
     inkscape:pageopacity="0.0"
     inkscape:pageshadow="2"
     inkscape:zoom="0.54621237"
     inkscape:cx="426.44062"
     inkscape:cy="499.9947"
     inkscape:document-units="mm"
     inkscape:current-layer="layer1"
     showgrid="false"
     inkscape:window-width="1331"
     inkscape:window-height="713"
     inkscape:window-x="35"
     inkscape:window-y="27"
     inkscape:window-maximized="1" />
  <metadata
     id="metadata5">
    <rdf:RDF>
      <cc:Work
         rdf:about="">
        <dc:format>image/svg+xml</dc:format>
        <dc:type
           rdf:resource="http://purl.org/dc/dcmitype/StillImage" />
        <dc:title></dc:title>
      </cc:Work>
    </rdf:RDF>
  </metadata>
  <g
     inkscape:label="Layer 1"
     inkscape:groupmode="layer"
     id="layer1">
    <rect
       style="opacity:1;fill:none;fill-opacity:0.81960784;stroke:none;stroke-width:0.259;stroke-miterlimit:4;stroke-dasharray:none;stroke-dashoffset:0;stroke-opacity:1"
       id="rect1554"
       width="181.16428"
       height="222.82236"
       x="15.500686"
       y="43.176254"
       ry="3.6622567"
       inkscape:export-xdpi="96"
       inkscape:export-ydpi="96" />
    <g
       id="g1067"
       transform="matrix(0.28089601,0,0,0.27582782,36.764848,63.64137)"
       inkscape:export-xdpi="96"
       inkscape:export-ydpi="96"
       style="opacity:1">
      <path
         id="path1047"
         d="M 437.01953,74.980469 C 388.66797,26.628906 324.37891,0 256,0 187.62109,0 123.33203,26.628906 74.980469,74.980469 26.628906,123.33203 0,187.62109 0,256 0,324.37891 26.628906,388.66797 74.980469,437.01953 123.33203,485.37109 187.62109,512 256,512 324.37891,512 388.66797,485.37109 437.01953,437.01953 485.37109,388.66797 512,324.37891 512,256 512,187.62109 485.37109,123.33203 437.01953,74.980469 Z m 0,0"
         inkscape:connector-curvature="0"
         style="fill:#cbcce3;fill-opacity:1" />
      <path
         id="path1049"
         d="M 437.01953,74.980469 C 388.66797,26.628906 324.37891,0 256,0 v 512 c 68.37891,0 132.66797,-26.62891 181.01953,-74.98047 C 485.37109,388.66797 512,324.37891 512,256 512,187.62109 485.37109,123.33203 437.01953,74.980469 Z m 0,0"
         inkscape:connector-curvature="0"
         style="fill:#5fd0dd;fill-opacity:0.99215686" />
      <path
         id="path1051"
         d="M 511.55469,241 H 381.55078 c -0.85156,-32.65234 -4.45703,-64.36328 -10.51172,-94.31641 h 116.15235 c 0.14843,0 0.28906,-0.0195 0.43359,-0.0234 -4.88672,-10.33204 -10.49609,-20.33985 -16.77344,-29.97657 H 364.00391 C 352.83203,75.035156 336.71484,37.707031 316.63281,7.199219 302.84375,3.867188 288.71094,1.664062 274.34375,0.652344 c 18.50781,21.46875 34.61719,49.46875 47.42578,82.71875 4.13281,10.730468 7.85156,21.859376 11.15625,33.312496 H 179.07422 c 3.30078,-11.45312 7.01953,-22.578121 11.15625,-33.312496 12.80859,-33.25 28.91797,-61.25 47.42578,-82.71875 -14.37109,1.011718 -28.5,3.214844 -42.28906,6.546875 -20.08203,30.511719 -36.19922,67.835937 -47.3711,109.484371 H 41.148438 c -6.277344,9.63672 -11.886719,19.64453 -16.773438,29.97657 0.144531,0.004 0.285156,0.0234 0.433594,0.0234 H 140.96094 C 134.90625,176.63672 131.30078,208.34766 130.44922,241 H 0.445312 C 0.160156,245.97656 0,250.97656 0,256 c 0,5.02344 0.160156,10.02344 0.445312,15 H 130.44922 c 0.85156,32.65234 4.45703,64.36328 10.51172,94.31641 H 24.808594 c -0.148438,0 -0.289063,0.0195 -0.433594,0.0234 4.886719,10.33203 10.496094,20.33985 16.773438,29.97657 H 148 c 11.17188,41.64843 27.28516,78.97656 47.37109,109.48437 13.78516,3.33203 27.91797,5.53516 42.28516,6.54688 -18.50781,-21.46875 -34.61328,-49.46875 -47.42578,-82.71875 -4.13281,-10.73047 -7.85156,-21.85938 -11.15625,-33.3125 h 153.85547 c -3.30469,11.45312 -7.02344,22.57812 -11.15625,33.3125 -12.8125,33.25 -28.91797,61.25 -47.42578,82.71875 14.36718,-1.00782 28.5,-3.21485 42.28515,-6.54688 20.08594,-30.51172 36.20313,-67.83594 47.3711,-109.48437 h 106.85156 c 6.27734,-9.63672 11.88672,-19.64454 16.77344,-29.97657 -0.14453,-0.004 -0.28516,-0.0234 -0.4336,-0.0234 H 371.03906 C 377.09375,335.36328 380.69922,303.65234 381.55078,271 H 511.55469 C 511.83984,266.02344 512,261.02344 512,256 c 0,-5.02344 -0.16016,-10.02344 -0.44531,-15 z M 340.44922,365.31641 H 171.55078 C 165.09375,335.30859 161.33984,303.55078 160.45703,271 h 191.08203 c -0.8789,32.55469 -4.63281,64.30859 -11.08984,94.31641 z M 160.45703,241 c 0.88281,-32.55469 4.63672,-64.30859 11.09375,-94.31641 h 168.89844 c 6.45703,30.00782 10.21094,61.76563 11.09375,94.31641 z m 0,0"
         inkscape:connector-curvature="0"
         style="fill:#f2f0ff" />
      <path
         id="path1053"
         d="M 511.55469,271 C 511.83984,266.02344 512,261.02344 512,256 c 0,-5.02344 -0.16016,-10.02344 -0.44531,-15 H 381.55078 c -0.85156,-32.65234 -4.45703,-64.36328 -10.51172,-94.31641 h 116.15235 c 0.14843,0 0.28906,-0.0195 0.43359,-0.0234 -4.88672,-10.33204 -10.49609,-20.33985 -16.77344,-29.97657 H 364.00391 C 352.83203,75.035156 336.71484,37.707031 316.63281,7.199219 302.84375,3.867188 288.71094,1.664062 274.34375,0.652344 c 18.50781,21.46875 34.61719,49.46875 47.42578,82.71875 4.13281,10.730468 7.85156,21.859376 11.15625,33.312496 H 256 v 30 h 84.44922 c 6.45703,30.01172 10.21094,61.76563 11.09375,94.31641 H 256 v 30 h 95.54297 c -0.88281,32.55469 -4.63672,64.30859 -11.09375,94.31641 H 256 v 30 h 76.92578 c -3.30078,11.45312 -7.01953,22.58203 -11.15625,33.3164 -12.80859,33.25 -28.91797,61.2461 -47.42578,82.71875 14.37109,-1.01172 28.5,-3.21484 42.28906,-6.54687 20.08203,-30.51172 36.19922,-67.83985 47.3711,-109.48828 h 106.84765 c 6.27735,-9.63672 11.88672,-19.64063 16.77344,-29.97657 -0.14453,-0.004 -0.28516,-0.0234 -0.42969,-0.0234 H 371.03906 c 6.05469,-29.94922 9.66016,-61.66016 10.51172,-94.3125 h 130.00391 z m 0,0"
         inkscape:connector-curvature="0"
         style="fill:#dccdff;fill-opacity:1" />
    </g>
    <g
       id="g829"
       transform="matrix(0.52916667,0,0,0.52916667,-294.8506,67.694587)">
				<g
   id="g821">
					<g
   id="g819">
						<circle
   style="fill:#382b73"
   class="st0"
   cx="128"
   cy="128"
   r="119.4"
   id="circle817" />

					</g>

				</g>

				<g
   id="g827">
					<g
   id="g825">
						<circle
   style="fill:#473080"
   class="st1"
   cx="128"
   cy="128"
   r="103.299"
   id="circle823" />

					</g>

				</g>

			</g>
    <g
       id="g1552"
       transform="matrix(0.63883198,0,0,0.65326143,38.782369,63.676239)"
       style="opacity:1"
       inkscape:export-xdpi="96"
       inkscape:export-ydpi="96">
      <g
         inkscape:export-ydpi="96"
         inkscape:export-xdpi="96"
         style="fill:#87a694;fill-opacity:0.81960784"
         id="g835"
         transform="matrix(0.52916667,0,0,0.52916667,41.211336,41.665099)">
				<g
   style="fill:#87a694;fill-opacity:0.81960784"
   id="g833">
					<path
   id="path831"
   d="M 195.167,80.25 H 60.833 c -3.314,0 -6,2.686 -6,6 v 83.333 c 0,3.314 2.686,6 6,6 h 53.042 c -0.155,3.469 -0.707,6.895 -1.636,10.214 -0.031,0.11 -0.062,0.219 -0.093,0.328 -0.004,0.014 -0.008,0.028 -0.012,0.042 -0.028,0.098 -0.057,0.196 -0.086,0.293 -0.006,0.02 -0.012,0.04 -0.018,0.061 -0.029,0.096 -0.058,0.192 -0.087,0.288 -0.005,0.016 -0.01,0.032 -0.015,0.048 -0.03,0.097 -0.06,0.194 -0.09,0.29 -0.006,0.018 -0.011,0.035 -0.017,0.053 -0.03,0.096 -0.061,0.193 -0.092,0.289 -0.005,0.017 -0.011,0.035 -0.017,0.052 -0.032,0.099 -0.064,0.197 -0.097,0.296 l -0.012,0.038 c -0.031,0.095 -0.063,0.189 -0.095,0.283 -0.008,0.024 -0.016,0.047 -0.024,0.07 -0.031,0.09 -0.061,0.179 -0.092,0.268 -0.008,0.021 -0.015,0.043 -0.023,0.064 -0.033,0.094 -0.066,0.187 -0.099,0.28 -0.007,0.018 -0.013,0.036 -0.019,0.054 -0.035,0.097 -0.07,0.194 -0.105,0.29 -0.005,0.014 -0.01,0.029 -0.016,0.043 -0.039,0.106 -0.079,0.212 -0.119,0.318 -10e-4,0.004 -0.003,0.008 -0.004,0.012 -0.211,0.559 -0.432,1.115 -0.665,1.666 -0.008,0.019 -0.016,0.038 -0.024,0.056 -0.037,0.088 -0.075,0.176 -0.113,0.265 -0.013,0.03 -0.026,0.06 -0.039,0.089 -0.035,0.08 -0.07,0.16 -0.105,0.24 -0.012,0.027 -0.024,0.054 -0.036,0.081 -0.035,0.079 -0.07,0.158 -0.105,0.236 -0.017,0.037 -0.034,0.074 -0.05,0.111 -0.032,0.07 -0.064,0.14 -0.096,0.21 -0.017,0.037 -0.035,0.075 -0.052,0.113 -0.032,0.07 -0.065,0.14 -0.097,0.21 -0.018,0.039 -0.037,0.078 -0.055,0.117 -0.031,0.066 -0.062,0.131 -0.093,0.197 -0.02,0.041 -0.04,0.082 -0.059,0.124 -0.033,0.068 -0.066,0.137 -0.1,0.205 -0.018,0.037 -0.036,0.074 -0.054,0.11 -0.034,0.069 -0.068,0.137 -0.102,0.206 -0.018,0.037 -0.037,0.074 -0.055,0.111 -0.034,0.068 -0.069,0.136 -0.103,0.204 -0.021,0.04 -0.041,0.08 -0.062,0.121 -0.031,0.06 -0.062,0.121 -0.093,0.181 -0.024,0.047 -0.048,0.093 -0.073,0.14 -0.03,0.058 -0.061,0.116 -0.091,0.173 -0.024,0.045 -0.048,0.09 -0.072,0.135 -0.034,0.064 -0.068,0.128 -0.103,0.192 -0.021,0.039 -0.042,0.078 -0.063,0.117 -0.035,0.065 -0.071,0.131 -0.107,0.196 -0.021,0.039 -0.043,0.079 -0.065,0.118 -0.038,0.069 -0.077,0.138 -0.116,0.208 -0.018,0.033 -0.036,0.066 -0.055,0.098 -0.056,0.1 -0.112,0.199 -0.169,0.298 -0.001,0.002 -0.002,0.004 -0.004,0.006 -0.06,0.105 -0.12,0.209 -0.181,0.314 l -0.877,1.506 H 91.919 c -1.82,0 -3.409,0.989 -4.259,2.458 v 0 c 0,0 0,0.001 -10e-4,0.001 -0.025,0.043 -0.049,0.086 -0.072,0.13 -0.004,0.007 -0.007,0.014 -0.011,0.021 -0.02,0.037 -0.038,0.073 -0.057,0.11 -0.005,0.009 -0.009,0.018 -0.013,0.027 -0.02,0.04 -0.039,0.081 -0.058,0.122 -0.002,0.003 -0.003,0.007 -0.005,0.01 -0.021,0.046 -0.041,0.093 -0.061,0.14 -0.001,0.003 -0.003,0.007 -0.004,0.01 -0.017,0.042 -0.034,0.083 -0.05,0.125 -0.004,0.009 -0.007,0.018 -0.011,0.028 -0.015,0.04 -0.029,0.079 -0.043,0.119 -0.003,0.007 -0.005,0.015 -0.008,0.022 -0.016,0.047 -0.032,0.094 -0.046,0.142 -0.001,0.005 -0.003,0.01 -0.004,0.015 -0.013,0.042 -0.025,0.084 -0.037,0.127 -0.003,0.011 -0.006,0.021 -0.009,0.032 -0.011,0.039 -0.021,0.079 -0.03,0.119 -0.002,0.009 -0.005,0.019 -0.007,0.028 -0.011,0.049 -0.022,0.098 -0.032,0.147 l -0.002,0.011 c -0.009,0.045 -0.017,0.089 -0.025,0.134 -0.002,0.012 -0.004,0.025 -0.006,0.037 -0.006,0.039 -0.012,0.079 -0.018,0.118 -10e-4,0.011 -0.003,0.021 -0.004,0.032 -0.007,0.049 -0.013,0.099 -0.018,0.149 -0.001,0.006 -0.001,0.013 -0.002,0.019 -0.004,0.043 -0.008,0.087 -0.011,0.13 -0.001,0.015 -0.002,0.031 -0.003,0.046 -0.002,0.037 -0.004,0.074 -0.006,0.111 -0.001,0.014 -0.001,0.028 -0.002,0.042 -0.001,0.051 -0.002,0.101 -0.002,0.152 v 0 0 c 0,0.212 0.013,0.421 0.039,0.626 0.005,0.041 0.011,0.082 0.017,0.122 0.025,0.163 0.058,0.323 0.098,0.48 0.01,0.039 0.021,0.078 0.032,0.117 0.055,0.194 0.122,0.384 0.2,0.568 0.062,0.147 0.131,0.29 0.207,0.43 0.057,0.105 0.117,0.207 0.181,0.307 0.043,0.066 0.087,0.132 0.133,0.196 0.046,0.064 0.093,0.128 0.142,0.189 0.024,0.031 0.049,0.062 0.074,0.092 0.902,1.093 2.267,1.789 3.794,1.789 h 72.162 c 1.527,0 2.892,-0.697 3.794,-1.789 0.025,-0.03 0.05,-0.061 0.074,-0.092 0.049,-0.062 0.096,-0.125 0.142,-0.189 0.046,-0.064 0.09,-0.13 0.133,-0.196 0.064,-0.1 0.124,-0.202 0.181,-0.307 0.076,-0.139 0.145,-0.283 0.207,-0.43 0.078,-0.184 0.145,-0.373 0.2,-0.568 0.011,-0.039 0.022,-0.078 0.032,-0.117 0.04,-0.157 0.073,-0.317 0.098,-0.48 0.006,-0.041 0.012,-0.081 0.017,-0.122 0.026,-0.205 0.039,-0.414 0.039,-0.626 v 0 0 c 0,-0.051 -10e-4,-0.102 -0.003,-0.152 -0.001,-0.014 -0.001,-0.028 -0.002,-0.042 -0.001,-0.037 -0.003,-0.074 -0.006,-0.111 -0.001,-0.016 -0.002,-0.031 -0.003,-0.046 -0.003,-0.044 -0.007,-0.087 -0.011,-0.13 -0.001,-0.006 -0.001,-0.012 -0.002,-0.019 -0.005,-0.05 -0.011,-0.1 -0.018,-0.149 -0.001,-0.011 -0.003,-0.022 -0.005,-0.032 -0.005,-0.04 -0.011,-0.079 -0.018,-0.118 -0.002,-0.012 -0.004,-0.025 -0.006,-0.037 -0.008,-0.045 -0.016,-0.09 -0.025,-0.134 l -0.002,-0.011 c -0.01,-0.049 -0.021,-0.098 -0.032,-0.147 -0.002,-0.009 -0.005,-0.019 -0.007,-0.028 -0.01,-0.04 -0.02,-0.08 -0.03,-0.119 -0.003,-0.011 -0.006,-0.021 -0.009,-0.032 -0.012,-0.043 -0.024,-0.085 -0.037,-0.127 -0.001,-0.005 -0.003,-0.01 -0.004,-0.015 -0.015,-0.048 -0.03,-0.095 -0.046,-0.142 -0.003,-0.007 -0.005,-0.015 -0.008,-0.022 -0.014,-0.04 -0.028,-0.08 -0.043,-0.119 -0.003,-0.009 -0.007,-0.018 -0.01,-0.028 -0.016,-0.042 -0.033,-0.084 -0.05,-0.125 -0.001,-0.004 -0.003,-0.007 -0.004,-0.01 -0.02,-0.047 -0.04,-0.094 -0.061,-0.14 -0.001,-0.003 -0.003,-0.007 -0.005,-0.01 -0.019,-0.041 -0.038,-0.081 -0.058,-0.122 -0.005,-0.009 -0.009,-0.018 -0.013,-0.027 -0.019,-0.037 -0.038,-0.074 -0.057,-0.11 -0.004,-0.007 -0.007,-0.014 -0.011,-0.021 -0.024,-0.044 -0.048,-0.087 -0.072,-0.13 0,0 -0.001,-0.001 -0.001,-0.001 v 0 c -0.85,-1.47 -2.439,-2.458 -4.259,-2.458 h -14.956 l -0.877,-1.506 c -0.061,-0.105 -0.121,-0.209 -0.181,-0.314 -0.001,-0.002 -0.002,-0.004 -0.003,-0.006 -0.057,-0.099 -0.113,-0.199 -0.169,-0.298 -0.018,-0.033 -0.036,-0.066 -0.055,-0.098 -0.039,-0.069 -0.077,-0.138 -0.116,-0.208 -0.022,-0.039 -0.043,-0.079 -0.065,-0.118 -0.036,-0.065 -0.071,-0.131 -0.107,-0.196 -0.021,-0.039 -0.042,-0.078 -0.063,-0.117 -0.034,-0.064 -0.069,-0.128 -0.103,-0.192 -0.024,-0.045 -0.048,-0.09 -0.072,-0.135 -0.031,-0.058 -0.061,-0.115 -0.091,-0.173 -0.024,-0.047 -0.048,-0.093 -0.073,-0.14 -0.031,-0.06 -0.062,-0.12 -0.093,-0.181 -0.021,-0.04 -0.041,-0.081 -0.061,-0.121 -0.034,-0.068 -0.069,-0.136 -0.103,-0.204 -0.019,-0.037 -0.037,-0.074 -0.055,-0.111 -0.034,-0.069 -0.068,-0.137 -0.102,-0.206 -0.018,-0.037 -0.036,-0.074 -0.054,-0.11 -0.033,-0.068 -0.066,-0.137 -0.1,-0.205 -0.02,-0.041 -0.04,-0.082 -0.059,-0.124 -0.031,-0.066 -0.063,-0.131 -0.094,-0.197 -0.018,-0.039 -0.037,-0.078 -0.055,-0.117 -0.033,-0.07 -0.065,-0.14 -0.097,-0.21 -0.017,-0.038 -0.035,-0.075 -0.052,-0.113 -0.032,-0.07 -0.064,-0.14 -0.096,-0.21 -0.017,-0.037 -0.034,-0.074 -0.05,-0.111 -0.035,-0.078 -0.07,-0.157 -0.105,-0.236 -0.012,-0.027 -0.024,-0.054 -0.036,-0.081 -0.035,-0.08 -0.07,-0.16 -0.105,-0.24 -0.013,-0.03 -0.026,-0.06 -0.039,-0.089 -0.038,-0.088 -0.076,-0.176 -0.113,-0.265 -0.008,-0.019 -0.016,-0.038 -0.024,-0.056 -0.233,-0.551 -0.454,-1.107 -0.665,-1.666 -0.001,-0.004 -0.003,-0.008 -0.004,-0.012 -0.04,-0.106 -0.079,-0.212 -0.119,-0.318 -0.005,-0.014 -0.01,-0.029 -0.016,-0.043 -0.035,-0.097 -0.071,-0.193 -0.105,-0.29 -0.006,-0.018 -0.013,-0.036 -0.019,-0.054 -0.033,-0.093 -0.066,-0.187 -0.099,-0.28 -0.008,-0.021 -0.015,-0.043 -0.023,-0.064 -0.031,-0.089 -0.062,-0.179 -0.092,-0.268 -0.008,-0.023 -0.016,-0.047 -0.024,-0.07 -0.032,-0.094 -0.064,-0.189 -0.095,-0.283 l -0.012,-0.038 c -0.033,-0.099 -0.065,-0.197 -0.097,-0.296 -0.006,-0.017 -0.011,-0.035 -0.017,-0.052 -0.031,-0.096 -0.062,-0.192 -0.092,-0.289 -0.006,-0.018 -0.011,-0.035 -0.017,-0.053 -0.03,-0.097 -0.06,-0.193 -0.09,-0.29 -0.005,-0.016 -0.01,-0.032 -0.015,-0.048 -0.029,-0.096 -0.058,-0.192 -0.087,-0.288 -0.006,-0.02 -0.012,-0.04 -0.018,-0.061 -0.029,-0.098 -0.057,-0.195 -0.086,-0.293 -0.004,-0.014 -0.008,-0.028 -0.012,-0.042 -0.031,-0.109 -0.063,-0.219 -0.093,-0.328 -0.929,-3.319 -1.481,-6.746 -1.636,-10.214 h 53.042 c 3.314,0 6,-2.686 6,-6 V 86.25 c 0.002,-3.314 -2.685,-6 -5.998,-6 z"
   class="st0"
   inkscape:connector-curvature="0"
   style="fill:#87a694;fill-opacity:0.81960784" />

				</g>

			</g>
      <g
         inkscape:export-ydpi="96"
         inkscape:export-xdpi="96"
         id="g957"
         transform="matrix(0.52916667,0,0,0.52916667,-246.83509,-89.809165)"
         style="">
				<g
   id="g893"
   style="">
					<g
   id="g891"
   style="">
						<g
   id="g889"
   style="">
							<g
   id="g887"
   style="">
								<g
   id="g885"
   style="">
									<g
   transform="translate(544.33971,248.4553)"
   id="g841"
   style="">
										<g
   id="g839"
   style="">
											<path
   id="path837"
   d="M 195.167,168.583 H 60.833 c -3.314,0 -6,-2.686 -6,-6 V 83.25 c 0,-3.314 2.686,-6 6,-6 h 134.333 c 3.314,0 6,2.686 6,6 v 79.333 c 0.001,3.314 -2.686,6 -5.999,6 z"
   class="st2"
   inkscape:connector-curvature="0"
   style="fill:#e7ad27" />

										</g>

									</g>

									<g
   transform="translate(544.33971,248.4553)"
   id="g847"
   style="">
										<g
   id="g845"
   style="">
											<path
   id="path843"
   d="M 195.167,164.583 H 60.833 c -3.314,0 -6,-2.686 -6,-6 V 79.25 c 0,-3.314 2.686,-6 6,-6 h 134.333 c 3.314,0 6,2.686 6,6 v 79.333 c 0.001,3.314 -2.686,6 -5.999,6 z"
   class="st3"
   inkscape:connector-curvature="0"
   style="fill:#fede3a" />

										</g>

									</g>

									<g
   transform="translate(544.33971,248.4553)"
   id="g853"
   style="">
										<g
   id="g851"
   style="">
											<path
   id="path849"
   d="m 193.5,158.25 h -131 c -1.105,0 -2,-0.895 -2,-2 v -76 c 0,-1.105 0.895,-2 2,-2 h 131 c 1.105,0 2,0.895 2,2 v 76 c 0,1.105 -0.895,2 -2,2 z"
   class="st4"
   inkscape:connector-curvature="0"
   style="fill:#1caee4" />

										</g>

									</g>

									<g
   transform="translate(544.33971,248.4553)"
   id="g859"
   style="">
										<g
   id="g857"
   style="">
											<path
   id="path855"
   d="m 193.5,78.25 h -131 c -1.104,0 -2,0.896 -2,2 v 4 c 0,-1.104 0.896,-2 2,-2 h 131 c 1.105,0 2,0.896 2,2 v -4 c 0,-1.105 -0.895,-2 -2,-2 z"
   class="st5"
   inkscape:connector-curvature="0"
   style="fill:#136da0" />

										</g>

									</g>

									<g
   transform="translate(544.33971,248.4553)"
   id="g865"
   style="">
										<g
   id="g863"
   style="">
											<path
   id="path861"
   d="m 149.125,190.917 h -42.25 l 0.877,-1.506 c 3.694,-6.346 5.795,-13.492 6.123,-20.827 v 0 h 28.25 v 0 c 0.328,7.335 2.43,14.481 6.123,20.827 z"
   class="st2"
   inkscape:connector-curvature="0"
   style="fill:#e7ad27" />

										</g>

									</g>

									<g
   transform="translate(544.33971,248.4553)"
   id="g871"
   style="">
										<g
   id="g869"
   style="">
											<path
   id="path867"
   d="M 164.081,200.75 H 91.919 c -2.715,0 -4.917,-2.201 -4.917,-4.917 v 0 c 0,-2.715 2.201,-4.917 4.917,-4.917 h 72.162 c 2.715,0 4.917,2.201 4.917,4.917 v 0 c -10e-4,2.716 -2.202,4.917 -4.917,4.917 z"
   class="st6"
   inkscape:connector-curvature="0"
   style="fill:#f7cb15" />

										</g>

									</g>

									<g
   transform="translate(544.33971,248.4553)"
   id="g877"
   style="">
										<g
   id="g875"
   style="">
											<path
   id="path873"
   d="M 164.081,195.833 H 91.919 c -1.82,0 -3.409,-0.989 -4.259,-2.459 -0.418,0.723 -0.658,1.563 -0.658,2.459 0,2.715 2.201,4.916 4.917,4.916 h 72.162 c 2.715,0 4.917,-2.201 4.917,-4.916 0,-0.896 -0.24,-1.735 -0.658,-2.459 -0.851,1.47 -2.439,2.459 -4.259,2.459 z"
   class="st2"
   inkscape:connector-curvature="0"
   style="fill:#e7ad27" />

										</g>

									</g>

									<g
   transform="translate(544.33971,248.4553)"
   id="g883"
   style="">
										<g
   id="g881"
   style="">
											<path
   id="path879"
   d="m 107.752,189.41 -0.877,1.506 h 42.25 l -0.877,-1.506 c -1.948,-3.347 -3.453,-6.916 -4.489,-10.619 H 112.24 c -1.035,3.703 -2.54,7.273 -4.488,10.619 z"
   class="st7"
   inkscape:connector-curvature="0"
   style="fill:#fff335" />

										</g>

									</g>

								</g>

							</g>

						</g>

					</g>

				</g>

				<g
   transform="translate(544.33971,248.4553)"
   id="g899"
   style="">
					<g
   id="g897"
   style="">
						<path
   id="path895"
   d="m 128,88.917 c -18.196,0 -33,14.804 -33,33 0,18.196 14.804,33 33,33 18.196,0 33,-14.804 33,-33 0,-18.196 -14.804,-33 -33,-33 z m -27.286,42.826 c 3.029,2.321 7.125,4.217 11.948,5.513 1.295,4.823 3.192,8.918 5.513,11.948 -8.1,-2.927 -14.535,-9.362 -17.461,-17.461 z m 54.572,-19.652 c -3.029,-2.321 -7.125,-4.217 -11.947,-5.513 -1.295,-4.823 -3.192,-8.918 -5.513,-11.948 8.099,2.927 14.534,9.362 17.46,17.461 z m -10.066,7.826 c -0.093,-3.103 -0.4,-6.079 -0.894,-8.875 6.436,2.049 11.065,5.244 12.328,8.875 z M 130,108.7 c 3.532,0.116 6.913,0.536 10.014,1.203 0.666,3.102 1.087,6.482 1.203,10.014 H 130 Z m -4,0 v 11.217 h -11.217 c 0.116,-3.532 0.537,-6.913 1.203,-10.014 3.101,-0.666 6.482,-1.087 10.014,-1.203 z m -11.217,15.217 H 126 v 11.217 c -3.532,-0.116 -6.913,-0.536 -10.014,-1.203 -0.666,-3.101 -1.087,-6.482 -1.203,-10.014 z M 130,135.134 v -11.217 h 11.217 c -0.116,3.532 -0.536,6.913 -1.203,10.014 -3.101,0.666 -6.482,1.087 -10.014,1.203 z m 8.875,-29.543 c -2.796,-0.494 -5.772,-0.802 -8.875,-0.894 V 93.263 c 3.631,1.263 6.827,5.893 8.875,12.328 z M 126,93.263 v 11.434 c -3.103,0.093 -6.079,0.4 -8.875,0.894 2.049,-6.435 5.244,-11.065 8.875,-12.328 z m -14.326,17.779 c -0.494,2.796 -0.802,5.772 -0.894,8.875 H 99.346 c 1.263,-3.631 5.893,-6.827 12.328,-8.875 z m -0.894,12.875 c 0.093,3.103 0.4,6.079 0.894,8.875 -6.436,-2.049 -11.065,-5.244 -12.328,-8.875 z m 6.345,14.326 c 2.796,0.494 5.772,0.802 8.875,0.894 v 11.434 c -3.631,-1.263 -6.826,-5.893 -8.875,-12.328 z M 130,150.571 v -11.434 c 3.103,-0.093 6.079,-0.4 8.875,-0.894 -2.048,6.435 -5.244,11.065 -8.875,12.328 z m 14.326,-17.779 c 0.495,-2.796 0.802,-5.772 0.894,-8.875 h 11.434 c -1.263,3.631 -5.893,6.826 -12.328,8.875 z M 118.174,94.631 c -2.321,3.029 -4.217,7.125 -5.513,11.948 -4.823,1.295 -8.918,3.192 -11.948,5.513 2.927,-8.1 9.362,-14.535 17.461,-17.461 z m 19.652,54.572 c 2.321,-3.029 4.217,-7.125 5.513,-11.948 4.823,-1.295 8.918,-3.192 11.947,-5.513 -2.926,8.1 -9.361,14.535 -17.46,17.461 z"
   class="st8"
   inkscape:connector-curvature="0"
   style="fill:#009add" />

					</g>

				</g>

				<g
   transform="translate(544.33971,248.4553)"
   id="g955"
   style="">
					<g
   id="g907"
   style="">
						<g
   id="g905"
   style="">
							<g
   id="g903"
   style="">
								<path
   id="path901"
   d="m 128,151.917 c -18.196,0 -33,-14.804 -33,-33 0,-18.196 14.804,-33 33,-33 18.196,0 33,14.804 33,33 0,18.196 -14.804,33 -33,33 z m 0,-62 c -15.99,0 -29,13.01 -29,29 0,15.99 13.01,29 29,29 15.99,0 29,-13.01 29,-29 0,-15.99 -13.01,-29 -29,-29 z"
   class="st9"
   inkscape:connector-curvature="0"
   style="fill:#ffffff" />

							</g>

						</g>

					</g>

					<g
   id="g913"
   style="">
						<g
   id="g911"
   style="">
							<path
   id="path909"
   d="m 128,87.917 c -17.121,0 -31,13.879 -31,31 0,17.121 13.879,31 31,31 17.121,0 31,-13.879 31,-31 0,-17.121 -13.879,-31 -31,-31 z m 0,60 c -15.99,0 -29,-13.01 -29,-29 0,-15.99 13.01,-29 29,-29 15.99,0 29,13.01 29,29 0,15.99 -13.01,29 -29,29 z"
   class="st10"
   inkscape:connector-curvature="0"
   style="fill:#d1d3d4" />

						</g>

					</g>

					<g
   id="g921"
   style="">
						<g
   id="g919"
   style="">
							<g
   id="g917"
   style="">
								<path
   id="path915"
   d="m 128,136.167 c -18.505,0 -33,-7.577 -33,-17.25 0,-9.673 14.495,-17.25 33,-17.25 18.505,0 33,7.577 33,17.25 0,9.673 -14.495,17.25 -33,17.25 z m 0,-30.5 c -15.72,0 -29,6.067 -29,13.25 0,7.183 13.28,13.25 29,13.25 15.72,0 29,-6.067 29,-13.25 0,-7.183 -13.28,-13.25 -29,-13.25 z"
   class="st9"
   inkscape:connector-curvature="0"
   style="fill:#ffffff" />

							</g>

						</g>

					</g>

					<g
   id="g927"
   style="">
						<g
   id="g925"
   style="">
							<path
   id="path923"
   d="m 128,103.667 c -17.121,0 -31,6.828 -31,15.25 0,8.422 13.879,15.25 31,15.25 17.121,0 31,-6.828 31,-15.25 0,-8.423 -13.879,-15.25 -31,-15.25 z m 0,28.5 c -15.72,0 -29,-6.067 -29,-13.25 0,-7.183 13.28,-13.25 29,-13.25 15.72,0 29,6.067 29,13.25 0,7.183 -13.28,13.25 -29,13.25 z"
   class="st10"
   inkscape:connector-curvature="0"
   style="fill:#d1d3d4" />

						</g>

					</g>

					<g
   id="g933"
   style="">
						<g
   id="g931"
   style="">
							<rect
   id="rect929"
   height="4"
   width="62"
   class="st9"
   y="116.917"
   x="97"
   style="fill:#ffffff" />

						</g>

					</g>

					<g
   id="g941"
   style="">
						<g
   id="g939"
   style="">
							<g
   id="g937"
   style="">
								<path
   id="path935"
   d="m 128,151.917 c -9.673,0 -17.25,-14.495 -17.25,-33 0,-18.505 7.577,-33 17.25,-33 9.673,0 17.25,14.495 17.25,33 0,18.505 -7.577,33 -17.25,33 z m 0,-62 c -7.183,0 -13.25,13.28 -13.25,29 0,15.72 6.067,29 13.25,29 7.183,0 13.25,-13.28 13.25,-29 0,-15.72 -6.067,-29 -13.25,-29 z"
   class="st9"
   inkscape:connector-curvature="0"
   style="fill:#ffffff" />

							</g>

						</g>

					</g>

					<g
   id="g947"
   style="">
						<g
   id="g945"
   style="">
							<path
   id="path943"
   d="m 128,87.917 c -8.422,0 -15.25,13.879 -15.25,31 0,17.121 6.828,31 15.25,31 8.422,0 15.25,-13.879 15.25,-31 0,-17.121 -6.828,-31 -15.25,-31 z m 0,60 c -7.183,0 -13.25,-13.28 -13.25,-29 0,-15.72 6.067,-29 13.25,-29 7.183,0 13.25,13.28 13.25,29 0,15.72 -6.067,29 -13.25,29 z"
   class="st10"
   inkscape:connector-curvature="0"
   style="fill:#d1d3d4" />

						</g>

					</g>

					<g
   id="g953"
   style="">
						<g
   id="g951"
   style="">
							<rect
   id="rect949"
   height="62"
   width="4"
   class="st9"
   y="87.917"
   x="126"
   style="fill:#ffffff" />

						</g>

					</g>

				</g>

			</g>
    </g>
    <g
       id="g1486"
       transform="translate(4.6086335,-0.40406666)"
       style="opacity:1"
       inkscape:export-xdpi="96"
       inkscape:export-ydpi="96">
      <g
         inkscape:export-ydpi="96"
         inkscape:export-xdpi="96"
         transform="matrix(0.14192963,0,0,0.12601035,67.988422,183.98623)"
         id="g1211"
         style="">
        <path
           inkscape:connector-curvature="0"
           style="fill:#e4eaf8"
           d="M 494.345,326.621 H 17.655 C 7.904,326.621 0,318.717 0,308.966 V 203.034 c 0,-9.751 7.904,-17.655 17.655,-17.655 h 476.69 c 9.751,0 17.655,7.904 17.655,17.655 v 105.931 c 0,9.752 -7.904,17.656 -17.655,17.656 z"
           id="path1147" />
        <path
           inkscape:connector-curvature="0"
           style="fill:#00c3ff"
           d="M 494.345,326.621 H 388.414 c -9.751,0 -17.655,-7.904 -17.655,-17.655 V 203.034 c 0,-9.751 7.904,-17.655 17.655,-17.655 h 105.931 c 9.751,0 17.655,7.904 17.655,17.655 v 105.931 c 0,9.752 -7.904,17.656 -17.655,17.656 z"
           id="path1149" />
        <path
           inkscape:connector-curvature="0"
           style="fill:#ffffff"
           d="m 482.931,285.069 -20.072,-20.072 c 3.101,-5.252 5.003,-11.296 5.003,-17.825 0,-19.47 -15.837,-35.31 -35.31,-35.31 -19.473,0 -35.31,15.84 -35.31,35.31 0,19.47 15.837,35.31 35.31,35.31 6.529,0 12.574,-1.901 17.825,-5.003 l 20.072,20.072 c 1.725,1.725 3.982,2.586 6.241,2.586 2.259,0 4.517,-0.862 6.241,-2.586 3.448,-3.448 3.448,-9.033 0,-12.482 z m -68.034,-37.897 c 0,-9.737 7.923,-17.655 17.655,-17.655 9.732,0 17.655,7.918 17.655,17.655 0,9.737 -7.923,17.655 -17.655,17.655 -9.732,0 -17.655,-7.918 -17.655,-17.655 z"
           id="path1151" />
        <path
           inkscape:connector-curvature="0"
           style="fill:#5b5d6e"
           d="m 35.31,300.138 c -4.879,0 -8.828,-3.953 -8.828,-8.828 v -70.62 c 0,-4.875 3.948,-8.828 8.828,-8.828 4.88,0 8.828,3.953 8.828,8.828 v 70.621 c 0,4.874 -3.948,8.827 -8.828,8.827 z"
           id="path1153" />
        <g
           id="g1155"
           style="">
</g>
        <g
           id="g1157"
           style="">
</g>
        <g
           id="g1159"
           style="">
</g>
        <g
           id="g1161"
           style="">
</g>
        <g
           id="g1163"
           style="">
</g>
        <g
           id="g1165"
           style="">
</g>
        <g
           id="g1167"
           style="">
</g>
        <g
           id="g1169"
           style="">
</g>
        <g
           id="g1171"
           style="">
</g>
        <g
           id="g1173"
           style="">
</g>
        <g
           id="g1175"
           style="">
</g>
        <g
           id="g1177"
           style="">
</g>
        <g
           id="g1179"
           style="">
</g>
        <g
           id="g1181"
           style="">
</g>
        <g
           id="g1183"
           style="">
</g>
      </g>
      <g
         inkscape:export-ydpi="96"
         inkscape:export-xdpi="96"
         transform="matrix(0.04944599,0,0,0.03849872,87.018515,205.66598)"
         id="g1145"
         style="">
        <path
           inkscape:connector-curvature="0"
           style="fill:#8ad5dd"
           d="M 437.76,276.002 H 22.24 C 10,276.002 0,265.922 0,253.682 v -118.72 c 0,-12.24 10,-22.24 22.24,-22.24 h 415.52 c 12.24,0 22.24,10 22.24,22.24 v 118.72 c 0.08,12.24 -9.92,22.32 -22.24,22.32 z"
           id="path1069" />
        <g
           id="g1075"
           style="">
	
		<rect
   x="446.08899"
   y="307.08701"
   transform="matrix(-0.7071,0.7071,-0.7071,-0.7071,1044.5651,273.2596)"
   style="fill:#002833"
   width="39.200001"
   height="91.759003"
   id="rect1071" />

	<polygon
   style="fill:#002833"
   points="474.88,278.962 390.24,363.522 372.48,261.122 "
   id="polygon1073" />

</g>
        <g
           id="g1083"
           style="">
	<path
   inkscape:connector-curvature="0"
   style="fill:#ffffff"
   d="m 78.72,158.082 9.6,36.88 c 2.08,8.08 4,15.6 5.36,23.12 h 0.48 c 1.68,-7.36 4,-15.12 6.48,-22.96 l 11.84,-37.04 h 11.12 l 11.28,36.32 c 2.72,8.72 4.8,16.32 6.48,23.68 h 0.48 c 1.2,-7.36 3.12,-15.04 5.52,-23.52 l 10.32,-36.4 h 13.04 l -23.36,72.56 h -12 l -11.12,-34.64 c -2.56,-8.08 -4.64,-15.28 -6.48,-23.84 h -0.32 c -1.76,8.72 -4,16.16 -6.56,24 l -11.68,34.48 h -12 l -21.92,-72.56 h 13.44 z"
   id="path1077" />

	<path
   inkscape:connector-curvature="0"
   style="fill:#ffffff"
   d="m 190.8,158.082 9.6,36.88 c 2.08,8.08 4,15.6 5.36,23.12 h 0.48 c 1.68,-7.36 4,-15.12 6.48,-22.96 l 11.84,-37.04 h 11.12 l 11.28,36.32 c 2.72,8.72 4.8,16.32 6.48,23.68 h 0.48 c 1.2,-7.36 3.12,-15.04 5.52,-23.52 l 10.32,-36.4 h 13.04 l -23.36,72.56 h -12 l -11.12,-34.64 c -2.56,-8.08 -4.64,-15.28 -6.48,-23.84 h -0.32 c -1.76,8.72 -4,16.16 -6.56,24 l -11.68,34.48 h -12 l -21.92,-72.56 h 13.44 z"
   id="path1079" />

	<path
   inkscape:connector-curvature="0"
   style="fill:#ffffff"
   d="m 302.96,158.082 9.6,36.88 c 2.08,8.08 4,15.6 5.36,23.12 h 0.48 c 1.68,-7.36 4,-15.12 6.48,-22.96 l 11.84,-37.04 h 11.12 l 11.28,36.32 c 2.72,8.72 4.8,16.32 6.48,23.68 h 0.48 c 1.2,-7.36 3.12,-15.04 5.52,-23.52 l 10.32,-36.4 h 13.04 l -23.36,72.56 h -12 l -11.12,-34.64 c -2.56,-8.08 -4.64,-15.28 -6.48,-23.84 h -0.4 c -1.76,8.72 -4,16.16 -6.56,24 l -11.68,34.48 h -12 l -21.92,-72.56 h 13.52 z"
   id="path1081" />

</g>
        <g
           id="g1085"
           style="">
</g>
        <g
           id="g1087"
           style="">
</g>
        <g
           id="g1089"
           style="">
</g>
        <g
           id="g1091"
           style="">
</g>
        <g
           id="g1093"
           style="">
</g>
        <g
           id="g1095"
           style="">
</g>
        <g
           id="g1097"
           style="">
</g>
        <g
           id="g1099"
           style="">
</g>
        <g
           id="g1101"
           style="">
</g>
        <g
           id="g1103"
           style="">
</g>
        <g
           id="g1105"
           style="">
</g>
        <g
           id="g1107"
           style="">
</g>
        <g
           id="g1109"
           style="">
</g>
        <g
           id="g1111"
           style="">
</g>
        <g
           id="g1113"
           style="">
</g>
      </g>
    </g>
    <g
       id="g1440"
       transform="translate(-2.2417668,-0.90245993)"
       style="opacity:1"
       inkscape:export-xdpi="96"
       inkscape:export-ydpi="96">
      <rect
         inkscape:export-ydpi="96"
         inkscape:export-xdpi="96"
         ry="3.6622698"
         y="228.49725"
         x="55.683426"
         height="17.790585"
         width="106.31805"
         id="rect1429"
         style="opacity:0.98999999;fill:#8ad5dd;fill-opacity:1;stroke:none;stroke-width:0.16366619;stroke-miterlimit:4;stroke-dasharray:none;stroke-dashoffset:0;stroke-opacity:1" />
      <text
         inkscape:export-ydpi="96"
         inkscape:export-xdpi="96"
         transform="scale(0.82245736,1.2158685)"
         id="text1435"
         y="198.2468"
         x="84.53495"
         style="font-style:normal;font-variant:normal;font-weight:normal;font-stretch:normal;font-size:9.86869526px;line-height:1.25;font-family:sans-serif;-inkscape-font-specification:sans-serif;letter-spacing:0px;word-spacing:0px;fill:#ffffff;fill-opacity:1;stroke:none;stroke-width:0.24671736"
         xml:space="preserve"><tspan
           style="fill:#ffffff;fill-opacity:1;stroke-width:0.24671736"
           y="198.2468"
           x="84.53495"
           id="tspan1433"
           sodipodi:role="line">ArjMarketing Digital</tspan></text>
    </g>
  </g>
  <style
     id="style815"
     type="text/css">
	.st0{fill:#382B73;}
	.st1{fill:#473080;}
	.st2{fill:#E7AD27;}
	.st3{fill:#FEDE3A;}
	.st4{fill:#1CAEE4;}
	.st5{fill:#136DA0;}
	.st6{fill:#F7CB15;}
	.st7{fill:#FFF335;}
	.st8{fill:#009ADD;}
	.st9{fill:#FFFFFF;}
	.st10{fill:#D1D3D4;}
</style>
</svg>
